<svg xmlns="http://www.w3.org/2000/svg" viewBox="0 0 50 50"><defs><style>.cls-1{fill:#86be40;}.cls-2{fill:#fff;}.cls-3{fill:#010101;opacity:0.11;}</style></defs><title>Recurso 22</title><g id="Capa_2" data-name="Capa 2"><g id="Layer_2" data-name="Layer 2"><path class="cls-1" d="M50,25a26.07,26.07,0,0,1-.14,2.67l-.12.94a25,25,0,0,1-19.8,20.9l-.82.15A25.45,25.45,0,0,1,25,50,25,25,0,1,1,50,25Z"/><path class="cls-2" d="M36.47,19l.06-.05.24-.24a2.17,2.17,0,0,0,0-3.07l-1-1a2.16,2.16,0,0,0-3.07,0l-.14.14,0,0a13.12,13.12,0,0,0-5.11-2.1v-.51a1.75,1.75,0,0,0,.89-1.54V9.91a1.76,1.76,0,0,0-1.76-1.76h-3a1.76,1.76,0,0,0-1.76,1.76v.72a1.75,1.75,0,0,0,.89,1.54v.51A13.33,13.33,0,1,0,36.47,19ZM25,38.48a12.7,12.7,0,0,1-2-25.24,13.8,13.8,0,0,1,3.91,0,12.47,12.47,0,0,1,5.45,2.23,22.89,22.89,0,0,1,3.35,3.58A12.69,12.69,0,0,1,25,38.48ZM33.6,25.79a.38.38,0,0,1,.37-.38h1.88A10.85,10.85,0,0,0,25.38,15v1.88a.37.37,0,0,1-.37.37.38.38,0,0,1-.37-.37V15A10.85,10.85,0,0,0,14.18,25.41h1.88a.38.38,0,0,1,0,.75H14.18A10.85,10.85,0,0,0,24.64,36.62V34.74a.38.38,0,0,1,.37-.37.37.37,0,0,1,.37.37v1.88A10.85,10.85,0,0,0,35.85,26.16H34A.38.38,0,0,1,33.6,25.79Zm-1.39-3.71L25.3,26.26a.6.6,0,0,1-.29.08.51.51,0,0,1-.17,0L19.1,24.45a.56.56,0,0,1,.35-1.06l5.49,1.79,6.69-4.06a.56.56,0,0,1,.58,1Z"/><path class="cls-3" d="M49.74,28.61a25,25,0,0,1-19.8,20.9L16.17,35.74l.17.14.21.18.24.19c.24.19.48.37.73.54l.29.19a12.57,12.57,0,0,0,2,1.07l.24.1c.27.11.56.22.84.31h0l.43.13h0l.46.12h.05l.35.08h.07l.2,0,.38.07.38.05h0l.24,0,.33,0,.49,0H25a13.34,13.34,0,0,0,11.56-6.69c.16-.28.31-.56.45-.86s.18-.39.26-.59A12.25,12.25,0,0,0,38,28.79c0-.21.1-.43.13-.65l.06-.33c0-.22.06-.44.08-.67a12,12,0,0,0,.07-1.35A13.2,13.2,0,0,0,36.47,19l.06-.05.24-.24h0a2.09,2.09,0,0,0,.14-.17.66.66,0,0,0,.12-.17l0,0a1.4,1.4,0,0,0,.1-.16h0l.05-.09a.42.42,0,0,1,0-.1,1.27,1.27,0,0,0,.06-.18s0,0,0-.05l0-.15a.08.08,0,0,0,0,0,.88.88,0,0,0,0-.16,0,0,0,0,0,0,0c0-.07,0-.14,0-.2a3,3,0,0,0,0-.42,2.15,2.15,0,0,0-.59-1.11ZM27.83,8.73a1.73,1.73,0,0,1,.46,1.18v.72a1.74,1.74,0,0,1-.9,1.54v.51a13.27,13.27,0,0,1,5.11,2.1l0,0,.14-.14a2.16,2.16,0,0,1,.62-.43Z"/></g></g></svg>