<svg xmlns="http://www.w3.org/2000/svg" viewBox="0 0 50 50"><defs><style>.cls-1{fill:#e82127;}.cls-2{fill:#fff;}.cls-3{fill:#010101;opacity:0.15;}</style></defs><title>Recurso 19</title><g id="Capa_2" data-name="Capa 2"><g id="Layer_2" data-name="Layer 2"><path class="cls-1" d="M50,25a24.84,24.84,0,0,1-.27,3.69c0,.27-.09.54-.14.81v.05a25,25,0,0,1-20,20h0l-.86.14A25,25,0,1,1,50,25Z"/><path class="cls-2" d="M23.33,31.68A1.67,1.67,0,1,1,25,33.35,1.69,1.69,0,0,1,23.33,31.68Zm-5.7-18.84a14.22,14.22,0,0,1,20.74,17,14.22,14.22,0,0,1-27.31-2A14.35,14.35,0,0,1,17.63,12.84Zm5.7,5.46A1.67,1.67,0,1,0,25,16.62,1.69,1.69,0,0,0,23.33,18.3ZM22,37.67a9,9,0,0,0,6,.34,13.25,13.25,0,0,0,5.29-2.57,13.37,13.37,0,0,0-7.74-23.82c.28.1.64.09.93.16a6.69,6.69,0,0,1,3.71,10.67A6.83,6.83,0,0,1,25,25a6.69,6.69,0,0,0-3,12.68Z"/><path class="cls-3" d="M49.59,29.5v.05a25,25,0,0,1-20,20L15.25,35.29a14.19,14.19,0,0,0,20.15-20Z"/></g></g></svg>